# xmcd CD database file
#
# Track frame offsets:
#	150
#	15863
#	29138
#	49538
#	67763
#	87376
#	101026
#	126001
#	143683
#	155158
#	176046
#
# Disc length: 2634 seconds
#
# Revision: 0
# Processed by: cddbd v1.5.2PL0 Copyright (c) Steve Scherf et al.
# Submitted via: CDex 1.51
#
DISCID=8c0a480b
DTITLE=Bill Molenhof and Maria Guala - Este es mi Mundo
DYEAR=2006
DGENRE=Jazz
TTITLE0=El Choclo
TTITLE1=Pajarillo Verde
TTITLE2=El Gaucho
TTITLE3=Baile Folklorico de Patagonia
TTITLE4=Fuimos
TTITLE5=Sometimes I am Happy
TTITLE6=I want to go to the Stars
TTITLE7=Lost your Way in L.A.
TTITLE8=Corralera
TTITLE9=Corcovado
TTITLE10=Este es mi Mundo
EXTD=YEAR: 2006
EXTT0=
EXTT1=
EXTT2=
EXTT3=
EXTT4=
EXTT5=
EXTT6=
EXTT7=
EXTT8=
EXTT9=
EXTT10=
PLAYORDER=
